<?xml version="1.0" encoding="utf-8"?>
<!-- Generator: Adobe Illustrator 24.0.2, SVG Export Plug-In . SVG Version: 6.00 Build 0)  -->
<svg version="1.1" id="Capa_1" xmlns="http://www.w3.org/2000/svg" xmlns:xlink="http://www.w3.org/1999/xlink" x="0px" y="0px"
	 viewBox="0 0 512 512" style="enable-background:new 0 0 512 512;" xml:space="preserve">
<style type="text/css">
	.st0{fill:#FF6633;}
</style>
<g>
	<path class="st0" d="M154.2,299.1c-2.2-0.8-4.4-1.6-6.6-2.4v-35.1c5.5,1.3,8.8,4.1,9.1,4.4c3,2.7,7.7,2.5,10.4-0.5
		c2.8-3,2.6-7.7-0.4-10.5c-0.4-0.4-7.5-6.8-19.1-8.5v-7.2c0-4.1-3.3-7.4-7.4-7.4s-7.4,3.3-7.4,7.4v7.7c-1.1,0.2-2.2,0.5-3.4,0.9
		c-10.6,3.2-18.5,12.3-20.7,23.7c-2,10.4,1.4,20.5,8.7,26.2c3.9,3,8.7,5.8,15.3,8.8v44.5c-5.7-0.4-9.7-1.8-16.2-6.1
		c-3.4-2.2-8-1.3-10.3,2.1c-2.2,3.4-1.3,8,2.1,10.3c9.5,6.2,16,8.1,24.3,8.5v8c0,4.1,3.3,7.4,7.4,7.4s7.4-3.3,7.4-7.4v-8.6
		c16.6-3.3,26.4-17,28.5-29.8C179,319.1,170.3,304.8,154.2,299.1L154.2,299.1z M126.6,286.2c-3-2.3-4.2-6.8-3.3-11.8
		c0.8-4.4,3.8-9.8,9.5-11.9v27.7C130.5,288.9,128.4,287.6,126.6,286.2L126.6,286.2z M161.6,333.1c-1.1,6.8-5.9,14-13.9,16.9v-37.5
		c0.5,0.2,1.1,0.4,1.6,0.6C163,317.9,162.1,329.6,161.6,333.1z"/>
	<path class="st0" d="M511.6,289.5c-1.3-5.8-5.4-10.5-10.9-12.5l-21.2-7.8c-3.8-1.4-8.1,0.6-9.5,4.4c-1.4,3.8,0.6,8.1,4.4,9.5
		l21.2,7.8c1.1,0.4,1.5,1.3,1.6,1.8c0.1,0.5,0.2,1.4-0.7,2.3L306.9,484.6c-0.8,0.8-1.8,0.8-2.3,0.7c-0.5-0.1-1.4-0.5-1.8-1.6
		l-26.6-72.5c-1.8-4.8-5.5-8.5-10.3-10.3l-72.5-26.6c-1.1-0.4-1.5-1.3-1.6-1.8s-0.2-1.4,0.7-2.3l189.6-189.6
		c0.8-0.8,1.8-0.8,2.3-0.7c0.5,0.1,1.4,0.5,1.8,1.6l26.6,72.5c1.8,4.8,5.5,8.5,10.3,10.3l18.4,6.8c3.8,1.4,8.1-0.6,9.5-4.4
		s-0.6-8.1-4.4-9.5l-18.4-6.8c-0.7-0.2-1.2-0.8-1.5-1.5l-26.6-72.5c-2-5.6-6.7-9.7-12.5-10.9c-5.8-1.3-11.8,0.5-16,4.7l-7.2,7.2
		v-73.6c0-9.5-7.8-17.3-17.3-17.3h-75.6c6.9-13.4,4.8-30.4-6.5-41.6c-9.6-9.6-23.6-12.8-36.1-8.8c-4.8-14-18.1-24.1-33.8-24.1
		c-15.6,0-28.9,10.1-33.8,24.1c-12.5-4-26.5-0.8-36.1,8.8c-6.7,6.7-10.5,15.7-10.5,25.3c0,5.8,1.4,11.4,4,16.4h-6.2
		c-4.1,0-7.4,3.3-7.4,7.4s3.3,7.4,7.4,7.4h52.9v70.2c-8.2-1.5-16.6-2.3-25-2.3c-15.5,0-30,2.4-43.9,7l-55.8,0v-72.5
		c0-1.4,1.1-2.5,2.5-2.5h33.8c4.1,0,7.4-3.3,7.4-7.4s-3.3-7.4-7.4-7.4H43.2c-9.5,0-17.3,7.8-17.3,17.3v124.6c0,0,0,0.1,0,0.1
		C9.6,251.4,0,279.4,0,309.7c0,30.2,9.5,58.9,27.4,83.2c1.5,2,3.7,3,6,3c1.5,0,3.1-0.5,4.4-1.4c3.3-2.4,4-7.1,1.6-10.4
		c-16-21.7-24.5-47.4-24.5-74.4c0-69.3,56.4-125.6,125.6-125.6c58.1,0,108,39.1,121.9,95.3l-12.6,12.6
		c-3.8-23.3-14.9-44.8-32.1-61.6c-20.8-20.3-48.3-31.4-77.2-31.4c-61.1,0-110.8,49.7-110.8,110.8s49.7,110.8,110.8,110.8
		c25.2,0,49.6-8.6,69.3-24.4l15.9,5.8c-23.1,21.3-53.6,33.4-85.2,33.4c-28.7,0-56.7-9.9-79-28c-3.2-2.6-7.9-2.1-10.4,1.1
		s-2.1,7.9,1.1,10.4c24.9,20.2,56.3,31.3,88.3,31.3c37.8,0,74.2-15.4,100.6-42.5l19.7,7.2c0.7,0.3,1.2,0.8,1.5,1.5l26.6,72.5
		c2,5.6,6.7,9.7,12.5,10.9c1.2,0.3,2.5,0.4,3.8,0.4c4.5,0,8.9-1.8,12.2-5.1l189.6-189.6C511.1,301.3,512.9,295.3,511.6,289.5z
		 M40.8,210.8v-19.7h24.5C56.4,196.7,48.1,203.4,40.8,210.8z M349.6,103.7v72.5H224.9v-75h122.2
		C348.5,101.2,349.6,102.4,349.6,103.7z M254.5,55.3c8.1,8.1,8.1,21.4,0,29.5c-0.3,0.3-1,0.9-2.1,1.6h-36.1
		c10.8-20.3,13.6-30.2,14.3-35.1C238.6,47.4,248.2,48.9,254.5,55.3z M195.2,26.7c11.5,0,20.9,9.4,20.9,20.9
		c0,2.1-1.2,11.2-16.6,38.8h-8.6c-15.4-27.6-16.6-36.7-16.6-38.8C174.3,36.1,183.6,26.7,195.2,26.7z M135.8,84.8
		c-3.9-3.9-6.1-9.2-6.1-14.8s2.2-10.8,6.1-14.8c6.4-6.4,16-7.9,23.9-4c0.7,5,3.5,14.9,14.3,35.1h-36.1
		C136.7,85.7,136.1,85.1,135.8,84.8z M180.3,101.2h29.8v75h-25.7c0,0-0.1,0-0.1,0c-1.3-0.4-2.7-0.9-4-1.2L180.3,101.2z M228.2,200.1
		c-4-3.2-8.2-6.2-12.6-9h133.9v1.1l-28.7,28.7h-71.6C243,213.3,236,206.3,228.2,200.1L228.2,200.1z M259.8,235.7H306l-31.6,31.6
		C270.9,256.2,265.9,245.6,259.8,235.7L259.8,235.7z M140.5,405.6c-52.9,0-95.9-43-95.9-95.9s43-95.9,95.9-95.9
		c50.9,0,93.6,41,95.8,91.7L182,359.7c-4.2,4.2-5.9,10.2-4.7,16s5.4,10.5,10.9,12.5l4.7,1.7C177.4,400.1,159.2,405.6,140.5,405.6z"
		/>
	<path class="st0" d="M363.8,395.1c0.9,0,1.9-0.2,2.8-0.6c3.8-1.5,5.6-5.9,4.1-9.7l-42.7-104.5c-1.5-3.8-5.9-5.6-9.7-4.1
		c-3.8,1.5-5.6,5.9-4.1,9.7l42.7,104.5C358.1,393.4,360.9,395.1,363.8,395.1L363.8,395.1z"/>
	<path class="st0" d="M275.6,311.3c-5.2,5.2-7.7,12.3-7.2,20.1c0.6,7.3,3.9,14.4,9.4,19.9c5.5,5.5,12.6,8.8,19.9,9.4
		c0.7,0.1,1.5,0.1,2.2,0.1c6.9,0,13.2-2.5,17.9-7.2c5.2-5.2,7.7-12.3,7.2-20.1c-0.6-7.3-3.9-14.4-9.4-19.9
		c-5.5-5.5-12.6-8.8-19.9-9.4C287.9,303.6,280.8,306.1,275.6,311.3z M305.1,324c3,3,4.8,6.7,5.1,10.5c0.3,3.4-0.8,6.4-2.9,8.5
		c-2.1,2.1-5.1,3.1-8.5,2.9c-3.8-0.3-7.5-2.1-10.5-5.1c-3-3-4.8-6.7-5.1-10.5c-0.3-3.4,0.8-6.4,2.9-8.5c1.9-1.9,4.5-2.9,7.5-2.9
		c0.3,0,0.7,0,1,0C298.4,319.2,302.1,321,305.1,324C305.1,324,305.1,324,305.1,324L305.1,324z"/>
	<path class="st0" d="M391.9,369.4c6.9,0,13.2-2.5,17.9-7.2c10.4-10.4,9.4-28.4-2.2-40c0,0,0,0,0,0c-11.6-11.6-29.6-12.6-40-2.2
		c-10.4,10.4-9.4,28.4,2.2,40c5.5,5.5,12.6,8.8,19.9,9.4C390.5,369.3,391.2,369.4,391.9,369.4z M378.1,330.4c2-2,4.6-2.9,7.5-2.9
		c3.9,0,8.2,1.8,11.5,5.1c5.9,5.9,6.8,14.4,2.2,19c-2.1,2.1-5.1,3.1-8.5,2.9c-3.8-0.3-7.5-2.1-10.5-5.1
		C374.5,343.6,373.5,335,378.1,330.4z"/>
</g>
</svg>
