<?xml version="1.0" encoding="utf-8"?>
<!-- Generator: Adobe Illustrator 24.0.2, SVG Export Plug-In . SVG Version: 6.00 Build 0)  -->
<svg version="1.1" id="Capa_1" xmlns="http://www.w3.org/2000/svg" xmlns:xlink="http://www.w3.org/1999/xlink" x="0px" y="0px"
	 viewBox="0 0 512 512" style="enable-background:new 0 0 512 512;" xml:space="preserve">
<style type="text/css">
	.st0{fill:#33CCCC;}
</style>
<g id="XMLID_1840_">
	<g id="XMLID_1021_">
		<path id="XMLID_1068_" class="st0" d="M492.2,285.4c2.6-4.9,0.7-10.9-4.1-13.5c-56-29.8-124.4-22.6-172.9,17.3L299,273l26.4-26.4
			c3.9-3.9,3.9-10.2,0-14.1c-3.9-3.9-10.2-3.9-14.1,0l-26.4,26.4l-64.4-64.4c14.6-19.6,23.9-42.7,26.8-67.3
			c3.3-28.3-2-56.6-15.4-81.9c-2.6-4.9-8.6-6.7-13.5-4.1c-4.9,2.6-6.7,8.6-4.1,13.5c21.5,40.5,18.2,88.7-8,125.5l-42.4-42.4
			c-6-6-14.4-8.4-22.6-6.6c-8.2,1.8-14.9,7.6-17.8,15.5L1.5,479c-3.3,9.1-1.1,19,5.7,25.8c4.7,4.7,10.9,7.2,17.3,7.2
			c2.9,0,5.7-0.5,8.5-1.5l332.3-121.8c7.9-2.9,13.7-9.5,15.5-17.8c1.8-8.2-0.7-16.7-6.6-22.6l-44.9-44.9
			c42.3-33.7,101-39.5,149.3-13.8C483.6,292.2,489.7,290.3,492.2,285.4L492.2,285.4z M159.3,442.9l-90.2-90.2l25-68.2l133.3,133.3
			L159.3,442.9z M110.4,460.8l-59.2-59.2l10.3-28.2l77.1,77.1L110.4,460.8z M26.1,491.7c-2.4,0.9-4-0.3-4.8-1.1
			c-0.8-0.8-1.9-2.4-1.1-4.8l23.3-63.6l46.1,46.1L26.1,491.7z M361.3,366.6c-0.2,0.9-0.8,2.5-2.9,3.3L297,392.4l-56.9-56.9
			c-3.9-3.9-10.2-3.9-14.1,0c-3.9,3.9-3.9,10.2,0,14.1l50.3,50.3l-28.2,10.3L101.7,263.9l10.3-28.2l50.3,50.3c2,2,4.5,2.9,7.1,2.9
			s5.1-1,7.1-2.9c3.9-3.9,3.9-10.2,0-14.1L119.6,215l22.5-61.5c0.7-2,2.4-2.7,3.3-2.9c0.3-0.1,0.6-0.1,1-0.1c0.9,0,2.1,0.3,3.2,1.3
			l210.5,210.5C361.6,363.9,361.5,365.7,361.3,366.6L361.3,366.6z"/>
		<path id="XMLID_1441_" class="st0" d="M301.6,79.8c5.5,0,10-4.5,10-10c0-8.4,6.8-15.2,15.2-15.2c19.4,0,35.2-15.8,35.2-35.2
			c0-5.5-4.5-10-10-10s-10,4.5-10,10c0,8.4-6.8,15.2-15.2,15.2c-19.4,0-35.2,15.8-35.2,35.2C291.6,75.3,296.1,79.8,301.6,79.8z"/>
		<path id="XMLID_1462_" class="st0" d="M390.3,174.2c20,0,36.3-16.3,36.3-36.3c0-9,7.3-16.3,16.3-16.3c5.5,0,10-4.5,10-10
			s-4.5-10-10-10c-20,0-36.3,16.3-36.3,36.3c0,9-7.3,16.3-16.3,16.3c-5.5,0-10,4.5-10,10S384.8,174.2,390.3,174.2z"/>
		<path id="XMLID_1489_" class="st0" d="M448,193.5c0,17.6,14.4,32,32,32s32-14.4,32-32s-14.4-32-32-32S448,175.8,448,193.5z
			 M480,181.5c6.6,0,12,5.4,12,12s-5.4,12-12,12s-12-5.4-12-12S473.4,181.5,480,181.5z"/>
		<path id="XMLID_1502_" class="st0" d="M315.1,169.9c17.6,0,32-14.4,32-32s-14.4-32-32-32s-32,14.4-32,32S297.5,169.9,315.1,169.9z
			 M315.1,125.9c6.6,0,12,5.4,12,12s-5.4,12-12,12s-12-5.4-12-12S308.5,125.9,315.1,125.9z"/>
		<path id="XMLID_1619_" class="st0" d="M128,64c17.6,0,32-14.4,32-32S145.6,0,128,0S96,14.4,96,32S110.4,64,128,64z M128,20
			c6.6,0,12,5.4,12,12s-5.4,12-12,12s-12-5.4-12-12S121.4,20,128,20z"/>
		<path id="XMLID_1620_" class="st0" d="M452.5,351.1c-3.9-3.9-10.2-3.9-14.1,0c-3.9,3.9-3.9,10.2,0,14.1l9.4,9.4
			c2,2,4.5,2.9,7.1,2.9s5.1-1,7.1-2.9c3.9-3.9,3.9-10.2,0-14.1L452.5,351.1z"/>
		<path id="XMLID_1659_" class="st0" d="M499.6,398.2c-3.9-3.9-10.2-3.9-14.1,0c-3.9,3.9-3.9,10.2,0,14.1l9.4,9.4
			c2,2,4.5,2.9,7.1,2.9s5.1-1,7.1-2.9c3.9-3.9,3.9-10.2,0-14.1L499.6,398.2z"/>
		<path id="XMLID_1690_" class="st0" d="M494.9,351.1l-9.4,9.4c-3.9,3.9-3.9,10.2,0,14.1c2,2,4.5,2.9,7.1,2.9s5.1-1,7.1-2.9l9.4-9.4
			c3.9-3.9,3.9-10.2,0-14.1C505.2,347.2,498.8,347.2,494.9,351.1L494.9,351.1z"/>
		<path id="XMLID_1712_" class="st0" d="M447.8,398.2l-9.4,9.4c-3.9,3.9-3.9,10.2,0,14.1c2,2,4.5,2.9,7.1,2.9c2.6,0,5.1-1,7.1-2.9
			l9.4-9.4c3.9-3.9,3.9-10.2,0-14.1C458,394.3,451.7,394.3,447.8,398.2L447.8,398.2z"/>
		<path id="XMLID_1715_" class="st0" d="M492.6,29.4c2.6,0,5.1-1,7.1-2.9l9.4-9.4c3.9-3.9,3.9-10.2,0-14.1c-3.9-3.9-10.2-3.9-14.1,0
			l-9.4,9.4c-3.9,3.9-3.9,10.2,0,14.1C487.5,28.5,490,29.4,492.6,29.4z"/>
		<path id="XMLID_1747_" class="st0" d="M445.4,76.6c2.6,0,5.1-1,7.1-2.9l9.4-9.4c3.9-3.9,3.9-10.2,0-14.1c-3.9-3.9-10.2-3.9-14.1,0
			l-9.4,9.4c-3.9,3.9-3.9,10.2,0,14.1C440.3,75.6,442.9,76.6,445.4,76.6z"/>
		<path id="XMLID_1750_" class="st0" d="M499.6,50.1c-3.9-3.9-10.2-3.9-14.1,0c-3.9,3.9-3.9,10.2,0,14.1l9.4,9.4
			c2,2,4.5,2.9,7.1,2.9s5.1-1,7.1-2.9c3.9-3.9,3.9-10.2,0-14.1L499.6,50.1z"/>
		<path id="XMLID_1751_" class="st0" d="M447.8,26.5c2,2,4.5,2.9,7.1,2.9s5.1-1,7.1-2.9c3.9-3.9,3.9-10.2,0-14.1l-9.4-9.4
			c-3.9-3.9-10.2-3.9-14.1,0c-3.9,3.9-3.9,10.2,0,14.1L447.8,26.5z"/>
		<path id="XMLID_1755_" class="st0" d="M201.2,300.8c-2.6,0-5.2,1.1-7.1,2.9s-2.9,4.4-2.9,7.1s1.1,5.2,2.9,7.1s4.4,2.9,7.1,2.9
			s5.2-1.1,7.1-2.9s2.9-4.4,2.9-7.1s-1.1-5.2-2.9-7.1S203.9,300.8,201.2,300.8z"/>
		<path id="XMLID_1756_" class="st0" d="M347.1,196.6l-7.2,7.2c-3.9,3.9-3.9,10.2,0,14.1c2,2,4.5,2.9,7.1,2.9s5.1-1,7.1-2.9l7.2-7.2
			c3.9-3.9,3.9-10.2,0-14.1C357.4,192.7,351,192.7,347.1,196.6L347.1,196.6z"/>
	</g>
</g>
</svg>
