<?xml version="1.0" encoding="utf-8"?>
<!-- Generator: Adobe Illustrator 24.0.2, SVG Export Plug-In . SVG Version: 6.00 Build 0)  -->
<svg version="1.1" id="Capa_1" xmlns="http://www.w3.org/2000/svg" xmlns:xlink="http://www.w3.org/1999/xlink" x="0px" y="0px"
	 viewBox="0 0 512 512" style="enable-background:new 0 0 512 512;" xml:space="preserve">
<style type="text/css">
	.st0{fill:#FFFFFF;}
</style>
<g>
	<g>
		<path class="st0" d="M470.1,399.5c3.2-8.1,3-16.9-0.5-24.9l-3.9-8.9l33.3-34c12.6-12.8,12.3-33.5-0.5-46l-118-115.6l-40.8-93.7
			c-1.7-3.8-6.1-5.5-9.9-3.9c-3.8,1.7-5.5,6.1-3.9,9.9l26,59.7L239.7,32.2l38-16.6c8.9-3.9,19.2,0.2,23.1,9.1L314,54.9
			c1.7,3.8,6.1,5.5,9.9,3.9c3.8-1.7,5.5-6.1,3.9-9.9l-13.1-30.2c-7.2-16.4-26.4-24-42.8-16.8l-43.6,19l-6.9-6.8
			c-12.8-12.6-33.5-12.3-46,0.5L125,65.9L59.2,94.5c-8,3.5-14.1,9.8-17.3,17.9c-3.2,8.1-3,16.9,0.5,24.9l3.9,8.9l-33.3,34
			c-12.6,12.8-12.3,33.5,0.5,46l22.9,22.4c3,2.9,7.7,2.9,10.6-0.1c2.9-3,2.9-7.7-0.1-10.6L24,215.5c-6.9-6.8-7-17.9-0.3-24.8
			l94-95.9l70.5,69.1c-22-2.3-55.1-1.6-86,16c-3.4,1.9-4.8,6.4-3,9.9c1.9,3.8,6.7,5.3,10.4,3.2c32.1-18.3,68-15.8,86.6-12.7
			l-102,104.1L68.3,259c-3-2.9-7.7-2.9-10.6,0.1c-2.9,3-2.9,7.7,0.1,10.6l73.6,72.1l32.2,73.9c0.4,0.9,1,1.7,1.6,2.4
			c2.1,2.1,5.4,2.8,8.3,1.5c3.8-1.7,5.5-6.1,3.9-9.9L160,369.8l112.2,109.9l-38,16.6c-8.9,3.9-19.2-0.2-23.1-9.1l-21.8-50
			c-1.7-3.8-6.1-5.5-9.9-3.9c-3.8,1.7-5.5,6.1-3.9,9.9l21.8,50c1.7,3.9,4.1,7.4,7,10.2c9.2,9,23.3,12.1,35.8,6.6l43.6-19l6.9,6.8
			c12.8,12.6,33.5,12.3,46-0.5l50.2-51.3l65.8-28.7C460.8,414,466.9,407.6,470.1,399.5L470.1,399.5z M56.1,131.4
			c-1.9-4.3-2-9.1-0.2-13.4c1.7-4.4,5-7.8,9.3-9.7L97,94.5l-39.4,40.2L56.1,131.4z M182.8,98.4c1.2-3.1,3.9-7.2,13.7-7.5
			c4.5-0.1,8.8,1.2,11.6,4.9c5.5,7.3,6.8,23.2,3.4,44.8c-1.2,7.5-2.7,14.5-4.1,20.2C188.8,138.6,177.7,111.5,182.8,98.4L182.8,98.4z
			 M225.1,150.8c4-21.1,6.3-49-5-64c-5.6-7.4-13.9-11.1-24-10.8c-7.8,0.2-21.7,2.7-27.3,17c-3.5,8.9-2.7,20.1,1.1,31.9l-41.7-40.8
			l57.8-59c6.8-6.9,17.9-7,24.8-0.3L281,93.7L225.1,150.8L225.1,150.8z M326.1,486.9c-6.8,6.9-17.9,7-24.8,0.3L105,294.9l102-104.1
			c3.5,18.5,6.7,54.4-10.9,86.8c-2,3.7-0.4,8.6,3.4,10.4c3.6,1.7,7.9,0.2,9.8-3.2c16.9-31.2,17-64.4,14.2-86.3L420,391L326.1,486.9z
			 M226.2,179.2c5.6-1.5,12.5-3.1,19.9-4.4c21.5-3.8,37.5-2.9,45,2.5c3.8,2.7,5.1,7,5.1,11.5c-0.1,9.8-4.1,12.6-7.2,13.9
			C276.1,207.9,248.8,197.3,226.2,179.2L226.2,179.2z M430.6,380.2L262.9,216c11.9,3.5,23.1,4.1,31.9,0.4
			c14.1-5.9,16.4-19.8,16.4-27.6c0.1-10.1-3.8-18.4-11.3-23.8c-15.2-11-43.1-8.1-64.1-3.7l56-57.1l196.3,192.3
			c6.9,6.8,7,17.9,0.3,24.8L430.6,380.2L430.6,380.2z M446.8,403.7L415,417.6l39.4-40.2l1.4,3.3c1.9,4.3,2,9.1,0.2,13.4
			C454.4,398.4,451.1,401.8,446.8,403.7L446.8,403.7z"/>
		<path class="st0" d="M280.4,414.2l-5,5.1c-2.9,3-2.9,7.7,0.1,10.6s7.7,2.9,10.6-0.1l4.9-5c4.9,3.1,9.5,4,12.9,4
			c6.7,0.1,13.7-2.8,18.6-7.8c4-4.1,6.4-9.1,6.9-14.4c0.6-7.1-2.2-14.5-8.3-22c-5.7-6.9-3.4-11.2-1.6-13.1c1.1-1.1,6.9-6.4,13.3-0.1
			c4.1,4,3.5,8.2,3.2,9.4c-1.1,2.7-0.5,6,1.7,8.2c4,4,10.5,2,12.4-3c1.4-4,2.1-11.8-2.2-19.3l5.1-5.3c2.9-3,2.9-7.7-0.1-10.6
			s-7.7-2.9-10.6,0.1l-5.1,5.2c-4.7-2.5-9.9-3.4-15.1-2.3c-7.3,1.4-12.1,5.9-13.4,7.2c-6.6,6.8-10.4,19.5,0.7,33.1
			c8.4,10.2,4,14.7,2.3,16.4c-1.6,1.6-4.5,3.4-7.6,3.3c-3-0.1-6-1.8-9-5.1c-6.4-7-3.8-12.8-3.5-13.4l0,0c1.7-2.9,1.3-6.7-1.2-9.2
			c-3.7-3.6-10-2.4-12.1,2.3C277.2,390.8,272.4,401.8,280.4,414.2L280.4,414.2z"/>
	</g>
</g>
</svg>
