<?xml version="1.0" encoding="utf-8"?>
<!-- Generator: Adobe Illustrator 24.0.2, SVG Export Plug-In . SVG Version: 6.00 Build 0)  -->
<svg version="1.1" id="Capa_1" xmlns="http://www.w3.org/2000/svg" xmlns:xlink="http://www.w3.org/1999/xlink" x="0px" y="0px"
	 viewBox="0 0 512 512" style="enable-background:new 0 0 512 512;" xml:space="preserve">
<style type="text/css">
	.st0{fill:#FFFFFF;}
</style>
<g>
	<g>
		<path class="st0" d="M256,0C114.6,0,0,114.6,0,256s114.6,256,256,256s256-114.6,256-256S397.4,0,256,0z M256,480
			C132.3,480,32,379.7,32,256S132.3,32,256,32s224,100.3,224,224S379.7,480,256,480z"/>
	</g>
</g>
<g>
	<g>
		<circle class="st0" cx="176" cy="176" r="32"/>
	</g>
</g>
<g>
	<g>
		<circle class="st0" cx="336" cy="176" r="32"/>
	</g>
</g>
<path class="st0" d="M400,256.3c0-0.1,0-0.2,0-0.3h0c-0.2-8.7-7.3-15.7-16-15.7c-8.9,0-16,7.2-16,16c0,0.5,0,1,0.1,1.5
	c-1,61-50.7,110.2-112,110.2c-61.9,0-112-50.1-112-112h0c-0.2-8.7-7.3-15.7-16-15.7c-8.9,0-16,7.2-16,16c0,0.7,0.1,1.3,0.1,1.9
	c1.2,78.5,65.2,141.7,144,141.7c79.4,0,143.8-64.2,144-143.6C400,256.4,400,256.4,400,256.3C400,256.3,400,256.3,400,256.3z"/>
</svg>
