<?xml version="1.0" encoding="utf-8"?>
<!-- Generator: Adobe Illustrator 24.0.2, SVG Export Plug-In . SVG Version: 6.00 Build 0)  -->
<svg version="1.1" id="Layer_1" xmlns="http://www.w3.org/2000/svg" xmlns:xlink="http://www.w3.org/1999/xlink" x="0px" y="0px"
	 viewBox="0 0 512 512" style="enable-background:new 0 0 512 512;" xml:space="preserve">
<style type="text/css">
	.st0{fill:#33CCCC;}
</style>
<path class="st0" d="M416.7,0H95.3C42.8,0,0,42.8,0,95.3v264.5c0,52.6,42.8,95.3,95.3,95.3H193l52.4,52.4c2.9,2.9,6.8,4.4,10.6,4.4
	c3.8,0,7.7-1.5,10.6-4.4l52.4-52.4h97.6c52.6,0,95.3-42.8,95.3-95.3V95.3C512,42.8,469.2,0,416.7,0z M482,359.9
	c0,36-29.3,65.3-65.3,65.3H312.8c-4,0-7.8,1.6-10.6,4.4L256,475.8l-46.2-46.2c-2.8-2.8-6.6-4.4-10.6-4.4H95.3
	c-36,0-65.3-29.3-65.3-65.3V95.3C30,59.3,59.3,30,95.3,30h321.3c36,0,65.3,29.3,65.3,65.3V359.9z"/>
<path class="st0" d="M137.9,134.9H87.3c-2.1,0-3.8,1.7-3.8,3.8v10.1c0,2.1,1.7,3.8,3.8,3.8h16v51.4c0,2.1,1.7,3.8,3.8,3.8h11
	c2.1,0,3.8-1.7,3.8-3.8v-51.4h16c2.1,0,3.8-1.7,3.8-3.8v-10.1C141.6,136.6,139.9,134.9,137.9,134.9z"/>
<path class="st0" d="M160.8,207.7c2.1,0,3.8-1.7,3.8-3.8V181h24.9v22.9c0,2.1,1.7,3.8,3.8,3.8h11c2.1,0,3.8-1.7,3.8-3.8v-65.2
	c0-2.1-1.7-3.8-3.8-3.8h-11c-2.1,0-3.8,1.7-3.8,3.8v24.5h-24.9v-24.5c0-2.1-1.7-3.8-3.8-3.8h-11c-2.1,0-3.8,1.7-3.8,3.8v65.2
	c0,2.1,1.7,3.8,3.8,3.8H160.8z"/>
<path class="st0" d="M257.1,137.2c-0.6-1.4-1.9-2.2-3.4-2.2H242c-1.5,0-2.8,0.9-3.4,2.2l-28.7,65.2c-0.5,1.2-0.4,2.5,0.3,3.6
	c0.7,1.1,1.9,1.7,3.1,1.7H225c1.5,0,2.8-0.9,3.4-2.2l5.5-12.6h27.8l5.5,12.6c0.6,1.4,1.9,2.2,3.4,2.2h11.8h0c2.1,0,3.8-1.7,3.8-3.8
	c0-0.7-0.2-1.3-0.5-1.9L257.1,137.2z M253.9,175.2h-12.2l6.1-13.8L253.9,175.2z"/>
<path class="st0" d="M351.4,134.9h-11c-2.1,0-3.8,1.7-3.8,3.8v37.8l-31.2-40.1c-0.7-0.9-1.8-1.4-3-1.4h-11c-2.1,0-3.8,1.7-3.8,3.8
	v65.2c0,2.1,1.7,3.8,3.8,3.8h11c2.1,0,3.8-1.7,3.8-3.8v-36.6l30.2,38.9c0.7,0.9,1.8,1.5,3,1.5h11.9c2.1,0,3.8-1.7,3.8-3.8v-65.2
	C355.1,136.6,353.5,134.9,351.4,134.9z"/>
<path class="st0" d="M402.9,167.5l24.1-26.3c1-1.1,1.3-2.7,0.7-4c-0.6-1.4-1.9-2.2-3.4-2.2h-14c-1,0-2,0.4-2.7,1.2L384.2,161v-22.3
	c0-2.1-1.7-3.8-3.8-3.8h-11c-2.1,0-3.8,1.7-3.8,3.8v65.2c0,2.1,1.7,3.8,3.8,3.8h11c2.1,0,3.8-1.7,3.8-3.8v-16.8l5.5-5.9l18.9,25
	c0.7,0.9,1.8,1.5,3,1.5h13.1c1.4,0,2.7-0.8,3.3-2c0.6-1.3,0.5-2.8-0.3-3.9L402.9,167.5z"/>
<path class="st0" d="M214.4,248.8c-0.7-1.2-1.9-1.9-3.3-1.9h-12c-1.3,0-2.5,0.7-3.2,1.8L181.3,273l-14.6-24.3
	c-0.7-1.1-1.9-1.8-3.2-1.8h-12c-1.4,0-2.6,0.7-3.3,1.9c-0.7,1.2-0.6,2.6,0.1,3.8l23.7,38.6v24.7c0,2.1,1.7,3.8,3.8,3.8h11.2
	c2.1,0,3.8-1.7,3.8-3.8v-24.7l23.7-38.6C215.1,251.4,215.1,250,214.4,248.8z"/>
<path class="st0" d="M247.5,245.3c-10.7,0-19.8,3.6-27.1,10.7c-7.3,7.1-11,16.1-11,26.8c0,10.6,3.7,19.6,11,26.8
	c7.3,7.1,16.4,10.7,27.1,10.7s19.8-3.6,27.1-10.7c7.3-7.1,11-16.1,11-26.8s-3.7-19.6-11-26.8C267.2,248.9,258.1,245.3,247.5,245.3z
	 M247.5,302.7c-5.5,0-9.9-1.9-13.7-5.8c-3.8-3.9-5.6-8.5-5.6-14.1c0-5.6,1.8-10.2,5.6-14.1c3.7-3.9,8.2-5.8,13.7-5.8
	s9.9,1.9,13.7,5.8c3.8,3.9,5.6,8.5,5.6,14.1c0,5.6-1.8,10.2-5.6,14.1C257.4,300.8,252.9,302.7,247.5,302.7z"/>
<path class="st0" d="M350.1,246.9h-11c-2.1,0-3.8,1.7-3.8,3.8v36.1c0,5-1.2,9-3.6,11.7c-2.3,2.6-5.3,3.9-9.3,3.9c-4,0-7-1.3-9.3-3.9
	c-2.4-2.8-3.6-6.7-3.6-11.7v-36.1c0-2.1-1.7-3.8-3.8-3.8h-11c-2.1,0-3.8,1.7-3.8,3.8v36.6c0,10.4,3,18.6,8.9,24.4
	c5.9,5.8,13.4,8.7,22.5,8.7s16.6-2.9,22.5-8.7c5.9-5.8,8.9-14,8.9-24.4v-36.6C353.8,248.6,352.1,246.9,350.1,246.9z"/>
</svg>
